# xmcd
#
# Track frame offsets:
#	150
#	20035
#	37797
#	60172
#	80562
#	95880
#	111082
#	127292
#	145860
#	163410
#	188380
#	205532
#	230207
#	245902
#	261287
#	277337
#
# Disc length: 4053 seconds
#
# Revision: 1
# Processed by: cddbd v1.4PL0 Copyright (c) Steve Scherf et al.
# Submitted via: audiograbber 1.81.02
#
DISCID=f10fd310
DTITLE=Maria Creuza - Perolas
DYEAR=1900
DGENRE=Vocal
TTITLE0=DOA A QUEM DOER
TTITLE1=FAZ PARTE DO MEU SHOW
TTITLE2=DOCE SAFADEZA
TTITLE3=SIMPLES CARINHO
TTITLE4=DA COR DO PECADO
TTITLE5=EU NAO EXISTO SEM VOCE
TTITLE6=CHUVAS DE VERAO
TTITLE7=FIM DE CASO
TTITLE8=FOLHA MORTA
TTITLE9=A NOITE DO MEU BEM
TTITLE10=COMO UMA ONDA
TTITLE11=VINGANCA
TTITLE12=CASINHA BRANCA
TTITLE13=MARINHA
TTITLE14=RIO ANTIGO
TTITLE15=CONTIGO EN LA DISTANCIA
EXTD=
EXTT0=
EXTT1=
EXTT2=
EXTT3=
EXTT4=
EXTT5=
EXTT6=
EXTT7=
EXTT8=
EXTT9=
EXTT10=
EXTT11=
EXTT12=
EXTT13=
EXTT14=
EXTT15=
PLAYORDER=
